<?xml version="1.0" ?><!DOCTYPE svg  PUBLIC '-//W3C//DTD SVG 1.1//EN'  'http://www.w3.org/Graphics/SVG/1.1/DTD/svg11.dtd'><svg height="32px" style="fill-rule:evenodd;clip-rule:evenodd;stroke-linejoin:round;stroke-miterlimit:2;" version="1.1" width="32px" xml:space="preserve" xmlns="http://www.w3.org/2000/svg" xmlns:serif="http://www.serif.com/" xmlns:xlink="http://www.w3.org/1999/xlink"><path d="M7,16l-1.132,0c-0.737,0 -1.415,0.406 -1.763,1.056c-0.348,0.651 -0.31,1.44 0.099,2.053l4.132,6.198c0.371,0.556 0.995,0.89 1.664,0.89c0.669,0 1.293,-0.334 1.664,-0.89l4.132,-6.198c0.409,-0.613 0.447,-1.402 0.099,-2.053c-0.348,-0.65 -1.026,-1.056 -1.763,-1.056l-1.132,0l-0,-8c-0,-1.105 -0.895,-2 -2,-2l-2,0c-1.105,0 -2,0.895 -2,2l-0,8Zm12,-0l0,8c0,1.105 0.895,2 2,2l2,0c1.105,-0 2,-0.895 2,-2l0,-8l1.132,-0c0.737,-0 1.415,-0.406 1.763,-1.056c0.348,-0.651 0.31,-1.44 -0.099,-2.053l-4.132,-6.198c-0.371,-0.556 -0.995,-0.89 -1.664,-0.89c-0.669,-0 -1.293,0.334 -1.664,0.89l-4.132,6.198c-0.409,0.613 -0.447,1.402 -0.099,2.053c0.348,0.65 1.026,1.056 1.763,1.056l1.132,-0Z"/></svg>